<?xml version="1.0" encoding="UTF-8"?>
<svg viewBox="0 0 60 60" version="1.1" xmlns="http://www.w3.org/2000/svg" xmlns:xlink="http://www.w3.org/1999/xlink">
    <!-- Generator: Sketch 46.2 (44496) - http://www.bohemiancoding.com/sketch -->
    <title>Icon / User</title>
    <desc>Created with Sketch.</desc>
    <defs></defs>
    <g id="Symbols" stroke="none" stroke-width="1" fill="none" fill-rule="evenodd">
        <g id="Content-/-Dashboard-User-/-Information" transform="translate(-20.000000, -58.000000)" stroke="#4A4A4A" stroke-width="0.5">
            <g id="Icon-/-Headshot" stroke-width="1.05" transform="translate(20.600000, 58.600000) scale(0.98)">
                <circle id="Oval-3" cx="30" cy="30" r="29.75"></circle>
                <path d="M11.4976744,48.2116983 C13.0555779,47.5897216 14.3205078,47.2775707 15.8511628,46.6046512 C18.3248529,45.5218194 19.2528352,45.1290633 21.7466655,44.018983 C21.7466655,44.018983 22.0084881,42.7276409 21.9148954,41.9611287 L23.8661251,41.9611287 C23.8661251,41.9611287 24.3103942,42.2229513 23.8661251,39.1900745 C23.8661251,39.1900745 21.4872124,38.5526965 21.3746642,33.7214185 C21.3746642,33.7214185 19.5881102,34.3279939 19.4779315,31.4005569 C19.4056637,29.4161551 17.8797476,27.6935758 20.0738444,26.2707301 L18.9590252,23.2378533 C18.9590252,23.2378533 16.7282022,10.9926132 23.1398933,12.7898297 C20.436368,9.53185654 38.4725072,6.27388341 39.6430081,16.6105436 C39.6430081,16.6105436 40.4782339,22.1893783 39.6430081,26.0100923 C39.6430081,26.0100923 42.2754504,25.7020657 40.5149602,30.8034593 C40.5149602,30.8034593 39.5506001,34.4713447 38.062595,33.647966 C38.062595,33.647966 38.3066468,38.2920586 35.9632755,39.078711 C35.9632755,39.078711 36.1315054,41.5500317 36.1315054,41.7182616 L38.3623285,42.0559061 C38.3623285,42.0559061 38.0270534,44.0794036 38.4180102,44.3009458 C38.4180102,44.3009458 41.0634844,46.1265954 44.2172024,46.9428658 C45.6258315,47.3065741 47.0818493,47.7437348 48.5023256,48.2116983 C43.6058881,52.9091031 37.3049681,56.4 30,56.4 C23.0243834,56.4 16.3194747,52.5359171 11.4976744,48.2116983 Z" id="Avatar"></path>
            </g>
        </g>
    </g>
</svg>